# xmcd
# 
# Track frame offsets:
#     150
#     2781
#     21383
#     40662
#     60742
#     79210
#     97116
#     113071
#     132658
#     153699
#     169876
#     188607
# 
# Disc length: 2817
# 
# Revision: 1
# Processed by: cddbd v1.5.2PL0 Copyright (c) Steve Scherf et al.
# Submitted via: BonkEnc v1.0.8
# 
DISCID=a00aff0c
DTITLE=CooRie - 秋やすみ
DYEAR=2004
DGENRE=Vocal
TTITLE0=はじめに
TTITLE1=センチメンタル
TTITLE2=大切な願い
TTITLE3=あなたと言う時間
TTITLE4=秋やすみ
TTITLE5=ステレオ
TTITLE6=流れ星☆
TTITLE7=未来へのMelody
TTITLE8=存在
TTITLE9=想い出トランク
TTITLE10=小さな手紙
TTITLE11=えんぴつ
EXTD=
EXTT0=
EXTT1=
EXTT2=
EXTT3=
EXTT4=
EXTT5=
EXTT6=
EXTT7=
EXTT8=
EXTT9=
EXTT10=
EXTT11=
PLAYORDER=
